# xmcd
#
# Track frame offsets:
#	150
#	22918
#	37337
#	59046
#	72882
#	93261
#	110714
#	128962
#
# Disc length: 1973 seconds
#
# Revision: 2
# Processed by: cddbd v1.5.2PL0 Copyright (c) Steve Scherf et al.
# Submitted via: audiograbber 1.83.01
#
DISCID=7307b308
DTITLE=In Articulo Mortis - The Time Has Come
DYEAR=2005
DGENRE=Death Metal
TTITLE0=God Is Dead
TTITLE1=The Face
TTITLE2=Suffering
TTITLE3=The Last Dialogue
TTITLE4=Heroes
TTITLE5=45 Seconds
TTITLE6=Mechanism of Murder
TTITLE7=Dechristianize
EXTD=
EXTT0=
EXTT1=
EXTT2=
EXTT3=
EXTT4=
EXTT5=
EXTT6=
EXTT7=
PLAYORDER=
